G04 FreePCB version 1.359*
G04 E:\Elektronik\ModelM\Board\CAM\bottom_solder_mask.grb*
G04 bottom solder mask layer *
G04 Scale: 100 percent, Rotated: No, Reflected: No *
%FSLAX24Y24*%
%MOIN*%
%LN bottom solder mask *%
G04 Rounded Rectangle Macro, params: W/2, H/2, R *
%AMRNDREC*
21,1,$1+$1,$2+$2-$3-$3,0,0,0*
21,1,$1+$1-$3-$3,$2+$2,0,0,0*
1,1,$3+$3,$1-$3,$2-$3*
1,1,$3+$3,$3-$1,$2-$3*
1,1,$3+$3,$1-$3,$3-$2*
1,1,$3+$3,$3-$1,$3-$2*%
G04 Rectangular Thermal Macro, params: W/2, H/2, T/2 *
%AMRECTHERM*
$4=$3/2*
21,1,$1-$3,$2-$3,0-$1/2-$4,0-$2/2-$4,0*
21,1,$1-$3,$2-$3,0-$1/2-$4,$2/2+$4,0*
21,1,$1-$3,$2-$3,$1/2+$4,0-$2/2-$4,0*
21,1,$1-$3,$2-$3,$1/2+$4,$2/2+$4,0*%
%AMMOIRE10*6,0,0,0.350000,0.005,0.050,3,0.005,0.400000,0.0*%
%ADD10MOIRE10*%
%ADD11C,0.010000*%
%ADD12C,0.005000*%
%ADD13R,0.076000X0.116000*%
%ADD14RNDREC,0.038000X0.058000X0.028000*%
%ADD15C,0.091000*%
%ADD16R,0.081000X0.116000*%
%ADD17RNDREC,0.040500X0.058000X0.033000*%
%ADD18RNDREC,0.040500X0.058000X0.028000*%
%ADD19RNDREC,0.058000X0.058000X0.028000*%
%ADD20R,0.116000X0.081000*%
%ADD21RNDREC,0.058000X0.040500X0.028000*%
%ADD22R,0.081000X0.076000*%
%ADD23RNDREC,0.040500X0.038000X0.028000*%
%ADD24R,0.081000X0.081000*%
%ADD25RNDREC,0.040500X0.040500X0.028000*%
%ADD26R,0.316000X0.316000*%
%ADD27C,0.116000*%
%ADD28C,0.016000*%
G90*
G70D02*

G04 ----------------------- Draw moires (positive)*
%LPD*%
G54D10*
G01X-5000Y0D03*
G01X61000Y0D03*
G01X-5000Y20000D03*

G04 Draw Layer Name*
G54D11*
G01X0Y-1045D02*
G01X0Y-2000D01*
G01X0Y-1045D02*
G01X409Y-1045D01*
G01X409Y-1045D02*
G01X545Y-1090D01*
G01X545Y-1090D02*
G01X590Y-1136D01*
G01X590Y-1136D02*
G01X636Y-1227D01*
G01X636Y-1227D02*
G01X636Y-1318D01*
G01X636Y-1318D02*
G01X590Y-1409D01*
G01X590Y-1409D02*
G01X545Y-1454D01*
G01X545Y-1454D02*
G01X409Y-1500D01*
G01X0Y-1500D02*
G01X409Y-1500D01*
G01X409Y-1500D02*
G01X545Y-1545D01*
G01X545Y-1545D02*
G01X590Y-1590D01*
G01X590Y-1590D02*
G01X636Y-1681D01*
G01X636Y-1681D02*
G01X636Y-1818D01*
G01X636Y-1818D02*
G01X590Y-1909D01*
G01X590Y-1909D02*
G01X545Y-1954D01*
G01X545Y-1954D02*
G01X409Y-2000D01*
G01X409Y-2000D02*
G01X0Y-2000D01*
G01X1227Y-1363D02*
G01X1136Y-1409D01*
G01X1136Y-1409D02*
G01X1045Y-1500D01*
G01X1045Y-1500D02*
G01X1000Y-1636D01*
G01X1000Y-1636D02*
G01X1000Y-1727D01*
G01X1000Y-1727D02*
G01X1045Y-1863D01*
G01X1045Y-1863D02*
G01X1136Y-1954D01*
G01X1136Y-1954D02*
G01X1227Y-2000D01*
G01X1227Y-2000D02*
G01X1363Y-2000D01*
G01X1363Y-2000D02*
G01X1454Y-1954D01*
G01X1454Y-1954D02*
G01X1545Y-1863D01*
G01X1545Y-1863D02*
G01X1590Y-1727D01*
G01X1590Y-1727D02*
G01X1590Y-1636D01*
G01X1590Y-1636D02*
G01X1545Y-1500D01*
G01X1545Y-1500D02*
G01X1454Y-1409D01*
G01X1454Y-1409D02*
G01X1363Y-1363D01*
G01X1363Y-1363D02*
G01X1227Y-1363D01*
G01X2090Y-1045D02*
G01X2090Y-1818D01*
G01X2090Y-1818D02*
G01X2136Y-1954D01*
G01X2136Y-1954D02*
G01X2227Y-2000D01*
G01X2227Y-2000D02*
G01X2318Y-2000D01*
G01X1954Y-1363D02*
G01X2272Y-1363D01*
G01X2818Y-1045D02*
G01X2818Y-1818D01*
G01X2818Y-1818D02*
G01X2863Y-1954D01*
G01X2863Y-1954D02*
G01X2954Y-2000D01*
G01X2954Y-2000D02*
G01X3045Y-2000D01*
G01X2681Y-1363D02*
G01X2999Y-1363D01*
G01X3636Y-1363D02*
G01X3545Y-1409D01*
G01X3545Y-1409D02*
G01X3454Y-1500D01*
G01X3454Y-1500D02*
G01X3409Y-1636D01*
G01X3409Y-1636D02*
G01X3409Y-1727D01*
G01X3409Y-1727D02*
G01X3454Y-1863D01*
G01X3454Y-1863D02*
G01X3545Y-1954D01*
G01X3545Y-1954D02*
G01X3636Y-2000D01*
G01X3636Y-2000D02*
G01X3772Y-2000D01*
G01X3772Y-2000D02*
G01X3863Y-1954D01*
G01X3863Y-1954D02*
G01X3954Y-1863D01*
G01X3954Y-1863D02*
G01X3999Y-1727D01*
G01X3999Y-1727D02*
G01X3999Y-1636D01*
G01X3999Y-1636D02*
G01X3954Y-1500D01*
G01X3954Y-1500D02*
G01X3863Y-1409D01*
G01X3863Y-1409D02*
G01X3772Y-1363D01*
G01X3772Y-1363D02*
G01X3636Y-1363D01*
G01X4363Y-1363D02*
G01X4363Y-2000D01*
G01X4363Y-1545D02*
G01X4499Y-1409D01*
G01X4499Y-1409D02*
G01X4590Y-1363D01*
G01X4590Y-1363D02*
G01X4727Y-1363D01*
G01X4727Y-1363D02*
G01X4818Y-1409D01*
G01X4818Y-1409D02*
G01X4863Y-1545D01*
G01X4863Y-1545D02*
G01X4863Y-2000D01*
G01X4863Y-1545D02*
G01X4999Y-1409D01*
G01X4999Y-1409D02*
G01X5090Y-1363D01*
G01X5090Y-1363D02*
G01X5227Y-1363D01*
G01X5227Y-1363D02*
G01X5318Y-1409D01*
G01X5318Y-1409D02*
G01X5363Y-1545D01*
G01X5363Y-1545D02*
G01X5363Y-2000D01*
G01X7090Y-1181D02*
G01X6999Y-1090D01*
G01X6999Y-1090D02*
G01X6863Y-1045D01*
G01X6863Y-1045D02*
G01X6681Y-1045D01*
G01X6681Y-1045D02*
G01X6545Y-1090D01*
G01X6545Y-1090D02*
G01X6454Y-1181D01*
G01X6454Y-1181D02*
G01X6454Y-1272D01*
G01X6454Y-1272D02*
G01X6499Y-1363D01*
G01X6499Y-1363D02*
G01X6545Y-1409D01*
G01X6545Y-1409D02*
G01X6636Y-1454D01*
G01X6636Y-1454D02*
G01X6909Y-1545D01*
G01X6909Y-1545D02*
G01X6999Y-1590D01*
G01X6999Y-1590D02*
G01X7045Y-1636D01*
G01X7045Y-1636D02*
G01X7090Y-1727D01*
G01X7090Y-1727D02*
G01X7090Y-1863D01*
G01X7090Y-1863D02*
G01X6999Y-1954D01*
G01X6999Y-1954D02*
G01X6863Y-2000D01*
G01X6863Y-2000D02*
G01X6681Y-2000D01*
G01X6681Y-2000D02*
G01X6545Y-1954D01*
G01X6545Y-1954D02*
G01X6454Y-1863D01*
G01X7681Y-1363D02*
G01X7590Y-1409D01*
G01X7590Y-1409D02*
G01X7499Y-1500D01*
G01X7499Y-1500D02*
G01X7454Y-1636D01*
G01X7454Y-1636D02*
G01X7454Y-1727D01*
G01X7454Y-1727D02*
G01X7499Y-1863D01*
G01X7499Y-1863D02*
G01X7590Y-1954D01*
G01X7590Y-1954D02*
G01X7681Y-2000D01*
G01X7681Y-2000D02*
G01X7818Y-2000D01*
G01X7818Y-2000D02*
G01X7909Y-1954D01*
G01X7909Y-1954D02*
G01X7999Y-1863D01*
G01X7999Y-1863D02*
G01X8045Y-1727D01*
G01X8045Y-1727D02*
G01X8045Y-1636D01*
G01X8045Y-1636D02*
G01X7999Y-1500D01*
G01X7999Y-1500D02*
G01X7909Y-1409D01*
G01X7909Y-1409D02*
G01X7818Y-1363D01*
G01X7818Y-1363D02*
G01X7681Y-1363D01*
G01X8409Y-1045D02*
G01X8409Y-2000D01*
G01X9318Y-1045D02*
G01X9318Y-2000D01*
G01X9318Y-1500D02*
G01X9227Y-1409D01*
G01X9227Y-1409D02*
G01X9136Y-1363D01*
G01X9136Y-1363D02*
G01X8999Y-1363D01*
G01X8999Y-1363D02*
G01X8909Y-1409D01*
G01X8909Y-1409D02*
G01X8818Y-1500D01*
G01X8818Y-1500D02*
G01X8772Y-1636D01*
G01X8772Y-1636D02*
G01X8772Y-1727D01*
G01X8772Y-1727D02*
G01X8818Y-1863D01*
G01X8818Y-1863D02*
G01X8909Y-1954D01*
G01X8909Y-1954D02*
G01X8999Y-2000D01*
G01X8999Y-2000D02*
G01X9136Y-2000D01*
G01X9136Y-2000D02*
G01X9227Y-1954D01*
G01X9227Y-1954D02*
G01X9318Y-1863D01*
G01X9681Y-1636D02*
G01X10227Y-1636D01*
G01X10227Y-1636D02*
G01X10227Y-1545D01*
G01X10227Y-1545D02*
G01X10181Y-1454D01*
G01X10181Y-1454D02*
G01X10136Y-1409D01*
G01X10136Y-1409D02*
G01X10045Y-1363D01*
G01X10045Y-1363D02*
G01X9909Y-1363D01*
G01X9909Y-1363D02*
G01X9818Y-1409D01*
G01X9818Y-1409D02*
G01X9727Y-1500D01*
G01X9727Y-1500D02*
G01X9681Y-1636D01*
G01X9681Y-1636D02*
G01X9681Y-1727D01*
G01X9681Y-1727D02*
G01X9727Y-1863D01*
G01X9727Y-1863D02*
G01X9818Y-1954D01*
G01X9818Y-1954D02*
G01X9909Y-2000D01*
G01X9909Y-2000D02*
G01X10045Y-2000D01*
G01X10045Y-2000D02*
G01X10136Y-1954D01*
G01X10136Y-1954D02*
G01X10227Y-1863D01*
G01X10590Y-1363D02*
G01X10590Y-2000D01*
G01X10590Y-1636D02*
G01X10636Y-1500D01*
G01X10636Y-1500D02*
G01X10727Y-1409D01*
G01X10727Y-1409D02*
G01X10818Y-1363D01*
G01X10818Y-1363D02*
G01X10954Y-1363D01*
G01X12045Y-1045D02*
G01X12045Y-2000D01*
G01X12045Y-1045D02*
G01X12409Y-2000D01*
G01X12772Y-1045D02*
G01X12409Y-2000D01*
G01X12772Y-1045D02*
G01X12772Y-2000D01*
G01X13681Y-1363D02*
G01X13681Y-2000D01*
G01X13681Y-1500D02*
G01X13590Y-1409D01*
G01X13590Y-1409D02*
G01X13499Y-1363D01*
G01X13499Y-1363D02*
G01X13363Y-1363D01*
G01X13363Y-1363D02*
G01X13272Y-1409D01*
G01X13272Y-1409D02*
G01X13181Y-1500D01*
G01X13181Y-1500D02*
G01X13136Y-1636D01*
G01X13136Y-1636D02*
G01X13136Y-1727D01*
G01X13136Y-1727D02*
G01X13181Y-1863D01*
G01X13181Y-1863D02*
G01X13272Y-1954D01*
G01X13272Y-1954D02*
G01X13363Y-2000D01*
G01X13363Y-2000D02*
G01X13499Y-2000D01*
G01X13499Y-2000D02*
G01X13590Y-1954D01*
G01X13590Y-1954D02*
G01X13681Y-1863D01*
G01X14545Y-1500D02*
G01X14499Y-1409D01*
G01X14499Y-1409D02*
G01X14363Y-1363D01*
G01X14363Y-1363D02*
G01X14227Y-1363D01*
G01X14227Y-1363D02*
G01X14090Y-1409D01*
G01X14090Y-1409D02*
G01X14045Y-1500D01*
G01X14045Y-1500D02*
G01X14090Y-1590D01*
G01X14090Y-1590D02*
G01X14181Y-1636D01*
G01X14181Y-1636D02*
G01X14409Y-1681D01*
G01X14409Y-1681D02*
G01X14499Y-1727D01*
G01X14499Y-1727D02*
G01X14545Y-1818D01*
G01X14545Y-1818D02*
G01X14545Y-1863D01*
G01X14545Y-1863D02*
G01X14499Y-1954D01*
G01X14499Y-1954D02*
G01X14363Y-2000D01*
G01X14363Y-2000D02*
G01X14227Y-2000D01*
G01X14227Y-2000D02*
G01X14090Y-1954D01*
G01X14090Y-1954D02*
G01X14045Y-1863D01*
G01X14909Y-1045D02*
G01X14909Y-2000D01*
G01X15363Y-1363D02*
G01X14909Y-1818D01*
G01X15090Y-1636D02*
G01X15409Y-2000D01*

G04 Step and Repeat for panelization *

G04 ----------------------- Draw board outline (positive)*
%LPD*%
G54D12*
G01X0Y0D02*
G01X56000Y0D01*
G04 end of side 1*
G01X56000Y20000D01*
G04 end of side 2*
G01X0Y20000D01*
G04 end of side 3*
G01X0Y0D01*

G04 -------------- Draw Parts, Pads, Traces, Vias and Text (positive)*
%LPD*%
G04 Draw part IC1*
G54D13*
G01X31000Y7000D03*
G54D14*
G01X32000Y7000D03*
G01X33000Y7000D03*
G01X34000Y7000D03*
G01X35000Y7000D03*
G01X36000Y7000D03*
G01X37000Y7000D03*
G01X38000Y7000D03*
G01X39000Y7000D03*
G01X40000Y7000D03*
G01X41000Y7000D03*
G01X42000Y7000D03*
G01X43000Y7000D03*
G01X44000Y7000D03*
G01X45000Y7000D03*
G01X46000Y7000D03*
G01X47000Y7000D03*
G01X48000Y7000D03*
G01X49000Y7000D03*
G01X50000Y7000D03*
G01X50000Y13000D03*
G01X49000Y13000D03*
G01X48000Y13000D03*
G01X47000Y13000D03*
G01X46000Y13000D03*
G01X45000Y13000D03*
G01X44000Y13000D03*
G01X43000Y13000D03*
G01X42000Y13000D03*
G01X41000Y13000D03*
G01X40000Y13000D03*
G01X39000Y13000D03*
G01X38000Y13000D03*
G01X37000Y13000D03*
G01X36000Y13000D03*
G01X35000Y13000D03*
G01X34000Y13000D03*
G01X33000Y13000D03*
G01X32000Y13000D03*
G01X31000Y13000D03*
G04 Draw part C1*
G54D15*
G01X41000Y4000D03*
G01X39000Y4000D03*
G04 Draw part C2*
G01X41000Y2000D03*
G01X39000Y2000D03*
G04 Draw part J3*
G54D16*
G01X25000Y18000D03*
G54D17*
G01X24000Y18000D03*
G01X23000Y18000D03*
G01X22000Y18000D03*
G01X21000Y18000D03*
G01X20000Y18000D03*
G01X19000Y18000D03*
G01X18000Y18000D03*
G04 Draw part J4*
G54D16*
G01X51000Y17000D03*
G54D18*
G01X50000Y17000D03*
G01X49000Y17000D03*
G01X48000Y17000D03*
G01X47000Y17000D03*
G01X46000Y17000D03*
G01X45000Y17000D03*
G01X44000Y17000D03*
G01X43000Y17000D03*
G01X42000Y17000D03*
G01X41000Y17000D03*
G01X40000Y17000D03*
G01X39000Y17000D03*
G01X38000Y17000D03*
G01X37000Y17000D03*
G01X36000Y17000D03*
G01X35000Y17000D03*
G01X34000Y17000D03*
G01X33000Y17000D03*
G01X32000Y17000D03*
G04 Draw part X1*
G54D19*
G01X43000Y2500D03*
G01X43000Y4500D03*
G04 Draw part C3*
G54D15*
G01X37500Y2500D03*
G01X37500Y4500D03*
G04 Draw part J1*
G54D20*
G01X4000Y14000D03*
G54D21*
G01X4000Y13000D03*
G01X4000Y12000D03*
G01X4000Y11000D03*
G01X4000Y10000D03*
G04 Draw part R3*
G54D15*
G01X17000Y2000D03*
G01X17000Y6000D03*
G04 Draw part R4*
G01X12000Y2000D03*
G01X12000Y6000D03*
G04 Draw part C5*
G01X6500Y11000D03*
G01X6500Y13000D03*
G04 Draw part R2*
G01X19000Y8500D03*
G01X19000Y4500D03*
G04 Draw part J2*
G54D22*
G01X7500Y16000D03*
G54D23*
G01X6500Y16000D03*
G01X7500Y17000D03*
G01X6500Y17000D03*
G01X7500Y18000D03*
G01X6500Y18000D03*
G04 Draw part R1*
G54D15*
G01X21000Y4500D03*
G01X21000Y8500D03*
G04 Draw part C4*
G01X15500Y8000D03*
G01X15500Y6000D03*
G04 Draw part J5*
G54D24*
G01X53500Y14500D03*
G54D25*
G01X53500Y15500D03*
G01X54500Y14500D03*
G01X54500Y15500D03*
G04 Draw part D1*
G54D15*
G01X14000Y3000D03*
G01X14000Y7000D03*
G04 Draw part D2*
G01X10000Y3000D03*
G01X10000Y7000D03*
G04 Draw part H1*
G54D26*
G01X2000Y2000D03*
G04 Draw part H3*
G01X54000Y18000D03*
G04 Draw part H4*
G01X2000Y18000D03*
G04 Draw part H5*
G01X46850Y2000D03*

G04 Draw traces*
G54D27*
G01X9500Y18000D03*
G01X9500Y14250D03*
G01X14250Y16750D03*
G01X14250Y14250D03*

G04 Draw Text*
G54D28*

G04 Draw solder mask cutouts*
M00*
M02*
