;Holesize 1 =   15.0 PLATED MILS
;Holesize 2 =   45.0 PLATED MILS
;Holesize 3 =   28.0 PLATED MILS
M48
INCH,00.0000
T01C0.015
T02C0.045
T03C0.028
%
G05
G90
T01
X031000Y007000
X032000Y007000
X033000Y007000
X034000Y007000
X035000Y007000
X036000Y007000
X037000Y007000
X038000Y007000
X039000Y007000
X040000Y007000
X041000Y007000
X042000Y007000
X043000Y007000
X044000Y007000
X045000Y007000
X046000Y007000
X047000Y007000
X048000Y007000
X049000Y007000
X050000Y007000
X050000Y013000
X049000Y013000
X048000Y013000
X047000Y013000
X046000Y013000
X045000Y013000
X044000Y013000
X043000Y013000
X042000Y013000
X041000Y013000
X040000Y013000
X039000Y013000
X038000Y013000
X037000Y013000
X036000Y013000
X035000Y013000
X034000Y013000
X033000Y013000
X032000Y013000
X031000Y013000
X025000Y018000
X024000Y018000
X023000Y018000
X022000Y018000
X021000Y018000
X020000Y018000
X019000Y018000
X018000Y018000
X051000Y017000
X050000Y017000
X049000Y017000
X048000Y017000
X047000Y017000
X046000Y017000
X045000Y017000
X044000Y017000
X043000Y017000
X042000Y017000
X041000Y017000
X040000Y017000
X039000Y017000
X038000Y017000
X037000Y017000
X036000Y017000
X035000Y017000
X034000Y017000
X033000Y017000
X032000Y017000
X043000Y002500
X043000Y004500
X004000Y014000
X004000Y013000
X004000Y012000
X004000Y011000
X004000Y010000
X007500Y016000
X006500Y016000
X007500Y017000
X006500Y017000
X007500Y018000
X006500Y018000
X053500Y014500
X053500Y015500
X054500Y014500
X054500Y015500
X002000Y002000
X054000Y018000
X002000Y018000
X046850Y002000
X009500Y018000
X009500Y014250
X014250Y016750
X014250Y014250
T02
X041000Y004000
X039000Y004000
X041000Y002000
X039000Y002000
X037500Y002500
X037500Y004500
X006500Y011000
X006500Y013000
X015500Y008000
X015500Y006000
T03
X017000Y002000
X017000Y006000
X012000Y002000
X012000Y006000
X019000Y008500
X019000Y004500
X021000Y004500
X021000Y008500
X014000Y003000
X014000Y007000
X010000Y003000
X010000Y007000
M30
