G04 FreePCB version 1.359*
G04 E:\Elektronik\ModelM\Board\CAM\top_silk.grb*
G04 top silk layer *
G04 Scale: 100 percent, Rotated: No, Reflected: No *
%FSLAX24Y24*%
%MOIN*%
%LN top silk *%
G04 Rounded Rectangle Macro, params: W/2, H/2, R *
%AMRNDREC*
21,1,$1+$1,$2+$2-$3-$3,0,0,0*
21,1,$1+$1-$3-$3,$2+$2,0,0,0*
1,1,$3+$3,$1-$3,$2-$3*
1,1,$3+$3,$3-$1,$2-$3*
1,1,$3+$3,$1-$3,$3-$2*
1,1,$3+$3,$3-$1,$3-$2*%
G04 Rectangular Thermal Macro, params: W/2, H/2, T/2 *
%AMRECTHERM*
$4=$3/2*
21,1,$1-$3,$2-$3,0-$1/2-$4,0-$2/2-$4,0*
21,1,$1-$3,$2-$3,0-$1/2-$4,$2/2+$4,0*
21,1,$1-$3,$2-$3,$1/2+$4,0-$2/2-$4,0*
21,1,$1-$3,$2-$3,$1/2+$4,$2/2+$4,0*%
%AMMOIRE10*6,0,0,0.350000,0.005,0.050,3,0.005,0.400000,0.0*%
%ADD10MOIRE10*%
%ADD11C,0.010000*%
%ADD12C,0.005000*%
%ADD13C,0.007000*%
G90*
G70D02*

G04 ----------------------- Draw moires (positive)*
%LPD*%
G54D10*
G01X-5000Y0D03*
G01X61000Y0D03*
G01X-5000Y20000D03*

G04 Draw Layer Name*
G54D11*
G01X318Y-1045D02*
G01X318Y-2000D01*
G01X0Y-1045D02*
G01X636Y-1045D01*
G01X1227Y-1363D02*
G01X1136Y-1409D01*
G01X1136Y-1409D02*
G01X1045Y-1500D01*
G01X1045Y-1500D02*
G01X1000Y-1636D01*
G01X1000Y-1636D02*
G01X1000Y-1727D01*
G01X1000Y-1727D02*
G01X1045Y-1863D01*
G01X1045Y-1863D02*
G01X1136Y-1954D01*
G01X1136Y-1954D02*
G01X1227Y-2000D01*
G01X1227Y-2000D02*
G01X1363Y-2000D01*
G01X1363Y-2000D02*
G01X1454Y-1954D01*
G01X1454Y-1954D02*
G01X1545Y-1863D01*
G01X1545Y-1863D02*
G01X1590Y-1727D01*
G01X1590Y-1727D02*
G01X1590Y-1636D01*
G01X1590Y-1636D02*
G01X1545Y-1500D01*
G01X1545Y-1500D02*
G01X1454Y-1409D01*
G01X1454Y-1409D02*
G01X1363Y-1363D01*
G01X1363Y-1363D02*
G01X1227Y-1363D01*
G01X1954Y-1363D02*
G01X1954Y-2318D01*
G01X1954Y-1500D02*
G01X2045Y-1409D01*
G01X2045Y-1409D02*
G01X2136Y-1363D01*
G01X2136Y-1363D02*
G01X2272Y-1363D01*
G01X2272Y-1363D02*
G01X2363Y-1409D01*
G01X2363Y-1409D02*
G01X2454Y-1500D01*
G01X2454Y-1500D02*
G01X2499Y-1636D01*
G01X2499Y-1636D02*
G01X2499Y-1727D01*
G01X2499Y-1727D02*
G01X2454Y-1863D01*
G01X2454Y-1863D02*
G01X2363Y-1954D01*
G01X2363Y-1954D02*
G01X2272Y-2000D01*
G01X2272Y-2000D02*
G01X2136Y-2000D01*
G01X2136Y-2000D02*
G01X2045Y-1954D01*
G01X2045Y-1954D02*
G01X1954Y-1863D01*
G01X4227Y-1181D02*
G01X4136Y-1090D01*
G01X4136Y-1090D02*
G01X3999Y-1045D01*
G01X3999Y-1045D02*
G01X3818Y-1045D01*
G01X3818Y-1045D02*
G01X3681Y-1090D01*
G01X3681Y-1090D02*
G01X3590Y-1181D01*
G01X3590Y-1181D02*
G01X3590Y-1272D01*
G01X3590Y-1272D02*
G01X3636Y-1363D01*
G01X3636Y-1363D02*
G01X3681Y-1409D01*
G01X3681Y-1409D02*
G01X3772Y-1454D01*
G01X3772Y-1454D02*
G01X4045Y-1545D01*
G01X4045Y-1545D02*
G01X4136Y-1590D01*
G01X4136Y-1590D02*
G01X4181Y-1636D01*
G01X4181Y-1636D02*
G01X4227Y-1727D01*
G01X4227Y-1727D02*
G01X4227Y-1863D01*
G01X4227Y-1863D02*
G01X4136Y-1954D01*
G01X4136Y-1954D02*
G01X3999Y-2000D01*
G01X3999Y-2000D02*
G01X3818Y-2000D01*
G01X3818Y-2000D02*
G01X3681Y-1954D01*
G01X3681Y-1954D02*
G01X3590Y-1863D01*
G01X4590Y-1045D02*
G01X4636Y-1090D01*
G01X4636Y-1090D02*
G01X4681Y-1045D01*
G01X4681Y-1045D02*
G01X4636Y-1000D01*
G01X4636Y-1000D02*
G01X4590Y-1045D01*
G01X4636Y-1363D02*
G01X4636Y-2000D01*
G01X5045Y-1045D02*
G01X5045Y-2000D01*
G01X5409Y-1045D02*
G01X5409Y-2000D01*
G01X5863Y-1363D02*
G01X5409Y-1818D01*
G01X5590Y-1636D02*
G01X5909Y-2000D01*
G01X6772Y-1500D02*
G01X6727Y-1409D01*
G01X6727Y-1409D02*
G01X6590Y-1363D01*
G01X6590Y-1363D02*
G01X6454Y-1363D01*
G01X6454Y-1363D02*
G01X6318Y-1409D01*
G01X6318Y-1409D02*
G01X6272Y-1500D01*
G01X6272Y-1500D02*
G01X6318Y-1590D01*
G01X6318Y-1590D02*
G01X6409Y-1636D01*
G01X6409Y-1636D02*
G01X6636Y-1681D01*
G01X6636Y-1681D02*
G01X6727Y-1727D01*
G01X6727Y-1727D02*
G01X6772Y-1818D01*
G01X6772Y-1818D02*
G01X6772Y-1863D01*
G01X6772Y-1863D02*
G01X6727Y-1954D01*
G01X6727Y-1954D02*
G01X6590Y-2000D01*
G01X6590Y-2000D02*
G01X6454Y-2000D01*
G01X6454Y-2000D02*
G01X6318Y-1954D01*
G01X6318Y-1954D02*
G01X6272Y-1863D01*
G01X7681Y-1500D02*
G01X7590Y-1409D01*
G01X7590Y-1409D02*
G01X7499Y-1363D01*
G01X7499Y-1363D02*
G01X7363Y-1363D01*
G01X7363Y-1363D02*
G01X7272Y-1409D01*
G01X7272Y-1409D02*
G01X7181Y-1500D01*
G01X7181Y-1500D02*
G01X7136Y-1636D01*
G01X7136Y-1636D02*
G01X7136Y-1727D01*
G01X7136Y-1727D02*
G01X7181Y-1863D01*
G01X7181Y-1863D02*
G01X7272Y-1954D01*
G01X7272Y-1954D02*
G01X7363Y-2000D01*
G01X7363Y-2000D02*
G01X7499Y-2000D01*
G01X7499Y-2000D02*
G01X7590Y-1954D01*
G01X7590Y-1954D02*
G01X7681Y-1863D01*
G01X8045Y-1363D02*
G01X8045Y-2000D01*
G01X8045Y-1636D02*
G01X8090Y-1500D01*
G01X8090Y-1500D02*
G01X8181Y-1409D01*
G01X8181Y-1409D02*
G01X8272Y-1363D01*
G01X8272Y-1363D02*
G01X8409Y-1363D01*
G01X8772Y-1636D02*
G01X9318Y-1636D01*
G01X9318Y-1636D02*
G01X9318Y-1545D01*
G01X9318Y-1545D02*
G01X9272Y-1454D01*
G01X9272Y-1454D02*
G01X9227Y-1409D01*
G01X9227Y-1409D02*
G01X9136Y-1363D01*
G01X9136Y-1363D02*
G01X8999Y-1363D01*
G01X8999Y-1363D02*
G01X8909Y-1409D01*
G01X8909Y-1409D02*
G01X8818Y-1500D01*
G01X8818Y-1500D02*
G01X8772Y-1636D01*
G01X8772Y-1636D02*
G01X8772Y-1727D01*
G01X8772Y-1727D02*
G01X8818Y-1863D01*
G01X8818Y-1863D02*
G01X8909Y-1954D01*
G01X8909Y-1954D02*
G01X8999Y-2000D01*
G01X8999Y-2000D02*
G01X9136Y-2000D01*
G01X9136Y-2000D02*
G01X9227Y-1954D01*
G01X9227Y-1954D02*
G01X9318Y-1863D01*
G01X9681Y-1636D02*
G01X10227Y-1636D01*
G01X10227Y-1636D02*
G01X10227Y-1545D01*
G01X10227Y-1545D02*
G01X10181Y-1454D01*
G01X10181Y-1454D02*
G01X10136Y-1409D01*
G01X10136Y-1409D02*
G01X10045Y-1363D01*
G01X10045Y-1363D02*
G01X9909Y-1363D01*
G01X9909Y-1363D02*
G01X9818Y-1409D01*
G01X9818Y-1409D02*
G01X9727Y-1500D01*
G01X9727Y-1500D02*
G01X9681Y-1636D01*
G01X9681Y-1636D02*
G01X9681Y-1727D01*
G01X9681Y-1727D02*
G01X9727Y-1863D01*
G01X9727Y-1863D02*
G01X9818Y-1954D01*
G01X9818Y-1954D02*
G01X9909Y-2000D01*
G01X9909Y-2000D02*
G01X10045Y-2000D01*
G01X10045Y-2000D02*
G01X10136Y-1954D01*
G01X10136Y-1954D02*
G01X10227Y-1863D01*
G01X10590Y-1363D02*
G01X10590Y-2000D01*
G01X10590Y-1545D02*
G01X10727Y-1409D01*
G01X10727Y-1409D02*
G01X10818Y-1363D01*
G01X10818Y-1363D02*
G01X10954Y-1363D01*
G01X10954Y-1363D02*
G01X11045Y-1409D01*
G01X11045Y-1409D02*
G01X11090Y-1545D01*
G01X11090Y-1545D02*
G01X11090Y-2000D01*

G04 Step and Repeat for panelization *

G04 ----------------------- Draw board outline (positive)*
%LPD*%
G54D12*
G01X0Y0D02*
G01X56000Y0D01*
G04 end of side 1*
G01X56000Y20000D01*
G04 end of side 2*
G01X0Y20000D01*
G04 end of side 3*
G01X0Y0D01*

G04 -------------- Draw Parts, Pads, Traces, Vias and Text (positive)*
%LPD*%
G04 Draw part IC1*
G04 draw part outline for part IC1*
G54D13*
G01X31000Y8000D02*
G01X50000Y8000D01*
G01X50000Y8000D02*
G01X50000Y12000D01*
G01X50000Y12000D02*
G01X31000Y12000D01*
G01X31000Y12000D02*
G01X31000Y10500D01*
G01X31000Y10500D02*
G01X31250Y10500D01*
G01X31250Y10500D02*
G01X31250Y9500D01*
G01X31250Y9500D02*
G01X31000Y9500D01*
G01X31000Y9500D02*
G01X31000Y8000D01*
G04 draw reference designator for part IC1*
G54D12*
G01X32000Y11477D02*
G01X32000Y11000D01*
G01X32500Y11409D02*
G01X32522Y11363D01*
G01X32454Y11454D02*
G01X32500Y11409D01*
G01X32409Y11477D02*
G01X32454Y11454D01*
G01X32318Y11477D02*
G01X32409Y11477D01*
G01X32318Y11477D02*
G01X32272Y11454D01*
G01X32272Y11454D02*
G01X32227Y11409D01*
G01X32227Y11409D02*
G01X32204Y11363D01*
G01X32204Y11363D02*
G01X32181Y11295D01*
G01X32181Y11295D02*
G01X32181Y11181D01*
G01X32181Y11181D02*
G01X32204Y11113D01*
G01X32204Y11113D02*
G01X32227Y11068D01*
G01X32227Y11068D02*
G01X32272Y11022D01*
G01X32272Y11022D02*
G01X32318Y11000D01*
G01X32409Y11000D02*
G01X32318Y11000D01*
G01X32454Y11022D02*
G01X32409Y11000D01*
G01X32500Y11068D02*
G01X32454Y11022D01*
G01X32522Y11113D02*
G01X32500Y11068D01*
G01X32750Y11409D02*
G01X32704Y11386D01*
G01X32818Y11477D02*
G01X32750Y11409D01*
G01X32818Y11477D02*
G01X32818Y11000D01*
G04 Draw part C1*
G04 draw part outline for part C1*
G54D13*
G01X41380Y3500D02*
G01X38620Y3500D01*
G01X38620Y3500D02*
G01X38620Y4500D01*
G01X38620Y4500D02*
G01X41380Y4500D01*
G01X41380Y4500D02*
G01X41380Y3500D01*
G04 draw reference designator for part C1*
G01X39681Y2790D02*
G01X39659Y2836D01*
G01X39727Y2745D02*
G01X39681Y2790D01*
G01X39772Y2722D02*
G01X39727Y2745D01*
G01X39863Y2722D02*
G01X39772Y2722D01*
G01X39863Y2722D02*
G01X39909Y2745D01*
G01X39909Y2745D02*
G01X39954Y2790D01*
G01X39954Y2790D02*
G01X39977Y2836D01*
G01X39977Y2836D02*
G01X40000Y2904D01*
G01X40000Y2904D02*
G01X40000Y3018D01*
G01X40000Y3018D02*
G01X39977Y3086D01*
G01X39977Y3086D02*
G01X39954Y3131D01*
G01X39954Y3131D02*
G01X39909Y3177D01*
G01X39909Y3177D02*
G01X39863Y3200D01*
G01X39772Y3200D02*
G01X39863Y3200D01*
G01X39727Y3177D02*
G01X39772Y3200D01*
G01X39681Y3131D02*
G01X39727Y3177D01*
G01X39659Y3086D02*
G01X39681Y3131D01*
G01X39431Y2790D02*
G01X39477Y2813D01*
G01X39363Y2722D02*
G01X39431Y2790D01*
G01X39363Y2722D02*
G01X39363Y3200D01*
G04 Draw part C2*
G04 draw part outline for part C2*
G01X41380Y1500D02*
G01X38620Y1500D01*
G01X38620Y1500D02*
G01X38620Y2500D01*
G01X38620Y2500D02*
G01X41380Y2500D01*
G01X41380Y2500D02*
G01X41380Y1500D01*
G04 draw reference designator for part C2*
G01X39681Y790D02*
G01X39659Y836D01*
G01X39727Y745D02*
G01X39681Y790D01*
G01X39772Y722D02*
G01X39727Y745D01*
G01X39863Y722D02*
G01X39772Y722D01*
G01X39863Y722D02*
G01X39909Y745D01*
G01X39909Y745D02*
G01X39954Y790D01*
G01X39954Y790D02*
G01X39977Y836D01*
G01X39977Y836D02*
G01X40000Y904D01*
G01X40000Y904D02*
G01X40000Y1018D01*
G01X40000Y1018D02*
G01X39977Y1086D01*
G01X39977Y1086D02*
G01X39954Y1131D01*
G01X39954Y1131D02*
G01X39909Y1177D01*
G01X39909Y1177D02*
G01X39863Y1200D01*
G01X39772Y1200D02*
G01X39863Y1200D01*
G01X39727Y1177D02*
G01X39772Y1200D01*
G01X39681Y1131D02*
G01X39727Y1177D01*
G01X39659Y1086D02*
G01X39681Y1131D01*
G01X39454Y813D02*
G01X39454Y836D01*
G01X39431Y768D02*
G01X39454Y813D01*
G01X39409Y745D02*
G01X39431Y768D01*
G01X39363Y722D02*
G01X39409Y745D01*
G01X39272Y722D02*
G01X39363Y722D01*
G01X39272Y722D02*
G01X39227Y745D01*
G01X39227Y745D02*
G01X39204Y768D01*
G01X39204Y768D02*
G01X39181Y813D01*
G01X39181Y813D02*
G01X39181Y859D01*
G01X39181Y859D02*
G01X39204Y904D01*
G01X39204Y904D02*
G01X39250Y972D01*
G01X39250Y972D02*
G01X39477Y1200D01*
G01X39159Y1200D02*
G01X39477Y1200D01*
G04 Draw part J3*
G04 draw part outline for part J3*
G01X25455Y17370D02*
G01X25455Y18630D01*
G01X25455Y18630D02*
G01X17545Y18630D01*
G01X17545Y18630D02*
G01X17545Y17370D01*
G01X17545Y17370D02*
G01X25455Y17370D01*
G04 draw reference designator for part J3*
G54D12*
G01X24227Y19477D02*
G01X24227Y19113D01*
G01X24227Y19113D02*
G01X24204Y19045D01*
G01X24204Y19045D02*
G01X24181Y19022D01*
G01X24181Y19022D02*
G01X24136Y19000D01*
G01X24090Y19000D02*
G01X24136Y19000D01*
G01X24045Y19022D02*
G01X24090Y19000D01*
G01X24022Y19045D02*
G01X24045Y19022D01*
G01X24000Y19113D02*
G01X24022Y19045D01*
G01X24000Y19159D02*
G01X24000Y19113D01*
G01X24704Y19477D02*
G01X24454Y19477D01*
G01X24704Y19477D02*
G01X24568Y19295D01*
G01X24636Y19295D02*
G01X24568Y19295D01*
G01X24636Y19295D02*
G01X24681Y19272D01*
G01X24681Y19272D02*
G01X24704Y19250D01*
G01X24704Y19250D02*
G01X24727Y19181D01*
G01X24727Y19181D02*
G01X24727Y19136D01*
G01X24727Y19136D02*
G01X24704Y19068D01*
G01X24704Y19068D02*
G01X24659Y19022D01*
G01X24659Y19022D02*
G01X24590Y19000D01*
G01X24522Y19000D02*
G01X24590Y19000D01*
G01X24454Y19022D02*
G01X24522Y19000D01*
G01X24431Y19045D02*
G01X24454Y19022D01*
G01X24409Y19090D02*
G01X24431Y19045D01*
G04 Draw part J4*
G04 draw part outline for part J4*
G54D13*
G01X51455Y16370D02*
G01X51455Y17630D01*
G01X51455Y17630D02*
G01X31545Y17630D01*
G01X31545Y17630D02*
G01X31545Y16370D01*
G01X31545Y16370D02*
G01X51455Y16370D01*
G04 draw reference designator for part J4*
G54D12*
G01X50227Y18477D02*
G01X50227Y18113D01*
G01X50227Y18113D02*
G01X50204Y18045D01*
G01X50204Y18045D02*
G01X50181Y18022D01*
G01X50181Y18022D02*
G01X50136Y18000D01*
G01X50090Y18000D02*
G01X50136Y18000D01*
G01X50045Y18022D02*
G01X50090Y18000D01*
G01X50022Y18045D02*
G01X50045Y18022D01*
G01X50000Y18113D02*
G01X50022Y18045D01*
G01X50000Y18159D02*
G01X50000Y18113D01*
G01X50636Y18477D02*
G01X50409Y18159D01*
G01X50750Y18159D02*
G01X50409Y18159D01*
G01X50636Y18477D02*
G01X50636Y18000D01*
G04 Draw part X1*
G04 draw part outline for part X1*
G54D11*
G01X43000Y1500D02*
G01X42960Y1500D01*
G01X42921Y1503D01*
G01X42882Y1506D01*
G01X42843Y1512D01*
G01X42804Y1519D01*
G01X42766Y1527D01*
G01X42728Y1537D01*
G01X42690Y1548D01*
G01X42653Y1561D01*
G01X42617Y1576D01*
G01X42581Y1591D01*
G01X42546Y1608D01*
G01X42511Y1627D01*
G01X42477Y1647D01*
G01X42444Y1668D01*
G01X42412Y1690D01*
G01X42380Y1714D01*
G01X42350Y1739D01*
G01X42321Y1765D01*
G01X42292Y1792D01*
G01X42265Y1821D01*
G01X42239Y1850D01*
G01X42214Y1880D01*
G01X42190Y1912D01*
G01X42168Y1944D01*
G01X42147Y1977D01*
G01X42127Y2011D01*
G01X42108Y2046D01*
G01X42091Y2081D01*
G01X42076Y2117D01*
G01X42061Y2153D01*
G01X42048Y2190D01*
G01X42037Y2228D01*
G01X42027Y2266D01*
G01X42019Y2304D01*
G01X42012Y2343D01*
G01X42006Y2382D01*
G01X42003Y2421D01*
G01X42000Y2460D01*
G01X42000Y2500D01*
G01X42000Y2500D02*
G01X42000Y4500D01*
G01X42000Y4500D02*
G01X42000Y4539D01*
G01X42003Y4578D01*
G01X42006Y4617D01*
G01X42012Y4656D01*
G01X42019Y4695D01*
G01X42027Y4733D01*
G01X42037Y4771D01*
G01X42048Y4809D01*
G01X42061Y4846D01*
G01X42076Y4882D01*
G01X42091Y4918D01*
G01X42108Y4953D01*
G01X42127Y4988D01*
G01X42147Y5022D01*
G01X42168Y5055D01*
G01X42190Y5087D01*
G01X42214Y5119D01*
G01X42239Y5149D01*
G01X42265Y5178D01*
G01X42292Y5207D01*
G01X42321Y5234D01*
G01X42350Y5260D01*
G01X42380Y5285D01*
G01X42412Y5309D01*
G01X42444Y5331D01*
G01X42477Y5352D01*
G01X42511Y5372D01*
G01X42546Y5391D01*
G01X42581Y5408D01*
G01X42617Y5423D01*
G01X42653Y5438D01*
G01X42690Y5451D01*
G01X42728Y5462D01*
G01X42766Y5472D01*
G01X42804Y5480D01*
G01X42843Y5487D01*
G01X42882Y5493D01*
G01X42921Y5496D01*
G01X42960Y5499D01*
G01X43000Y5500D01*
G01X43000Y5500D02*
G01X43039Y5499D01*
G01X43078Y5496D01*
G01X43117Y5493D01*
G01X43156Y5487D01*
G01X43195Y5480D01*
G01X43233Y5472D01*
G01X43271Y5462D01*
G01X43309Y5451D01*
G01X43346Y5438D01*
G01X43382Y5423D01*
G01X43418Y5408D01*
G01X43453Y5391D01*
G01X43488Y5372D01*
G01X43522Y5352D01*
G01X43555Y5331D01*
G01X43587Y5309D01*
G01X43619Y5285D01*
G01X43649Y5260D01*
G01X43678Y5234D01*
G01X43707Y5207D01*
G01X43734Y5178D01*
G01X43760Y5149D01*
G01X43785Y5119D01*
G01X43809Y5087D01*
G01X43831Y5055D01*
G01X43852Y5022D01*
G01X43872Y4988D01*
G01X43891Y4953D01*
G01X43908Y4918D01*
G01X43923Y4882D01*
G01X43938Y4846D01*
G01X43951Y4809D01*
G01X43962Y4771D01*
G01X43972Y4733D01*
G01X43980Y4695D01*
G01X43987Y4656D01*
G01X43993Y4617D01*
G01X43996Y4578D01*
G01X43999Y4539D01*
G01X44000Y4500D01*
G01X44000Y4500D02*
G01X44000Y2500D01*
G01X44000Y2500D02*
G01X43999Y2460D01*
G01X43996Y2421D01*
G01X43993Y2382D01*
G01X43987Y2343D01*
G01X43980Y2304D01*
G01X43972Y2266D01*
G01X43962Y2228D01*
G01X43951Y2190D01*
G01X43938Y2153D01*
G01X43923Y2117D01*
G01X43908Y2081D01*
G01X43891Y2046D01*
G01X43872Y2011D01*
G01X43852Y1977D01*
G01X43831Y1944D01*
G01X43809Y1912D01*
G01X43785Y1880D01*
G01X43760Y1850D01*
G01X43734Y1821D01*
G01X43707Y1792D01*
G01X43678Y1765D01*
G01X43649Y1739D01*
G01X43619Y1714D01*
G01X43587Y1690D01*
G01X43555Y1668D01*
G01X43522Y1647D01*
G01X43488Y1627D01*
G01X43453Y1608D01*
G01X43418Y1591D01*
G01X43382Y1576D01*
G01X43346Y1561D01*
G01X43309Y1548D01*
G01X43271Y1537D01*
G01X43233Y1527D01*
G01X43195Y1519D01*
G01X43156Y1512D01*
G01X43117Y1506D01*
G01X43078Y1503D01*
G01X43039Y1500D01*
G01X43000Y1500D01*
G04 draw reference designator for part X1*
G01X44500Y5454D02*
G01X45136Y4500D01*
G01X45136Y5454D02*
G01X44500Y4500D01*
G01X45590Y5318D02*
G01X45500Y5272D01*
G01X45727Y5454D02*
G01X45590Y5318D01*
G01X45727Y5454D02*
G01X45727Y4500D01*
G04 Draw part C3*
G04 draw part outline for part C3*
G54D13*
G01X37000Y2120D02*
G01X37000Y4880D01*
G01X37000Y4880D02*
G01X38000Y4880D01*
G01X38000Y4880D02*
G01X38000Y2120D01*
G01X38000Y2120D02*
G01X37000Y2120D01*
G04 draw reference designator for part C3*
G01X36290Y3818D02*
G01X36336Y3840D01*
G01X36245Y3772D02*
G01X36290Y3818D01*
G01X36222Y3727D02*
G01X36245Y3772D01*
G01X36222Y3636D02*
G01X36222Y3727D01*
G01X36222Y3636D02*
G01X36245Y3590D01*
G01X36245Y3590D02*
G01X36290Y3545D01*
G01X36290Y3545D02*
G01X36336Y3522D01*
G01X36336Y3522D02*
G01X36404Y3500D01*
G01X36404Y3500D02*
G01X36518Y3500D01*
G01X36518Y3500D02*
G01X36586Y3522D01*
G01X36586Y3522D02*
G01X36631Y3545D01*
G01X36631Y3545D02*
G01X36677Y3590D01*
G01X36677Y3590D02*
G01X36700Y3636D01*
G01X36700Y3727D02*
G01X36700Y3636D01*
G01X36677Y3772D02*
G01X36700Y3727D01*
G01X36631Y3818D02*
G01X36677Y3772D01*
G01X36586Y3840D02*
G01X36631Y3818D01*
G01X36222Y4318D02*
G01X36222Y4068D01*
G01X36222Y4318D02*
G01X36404Y4181D01*
G01X36404Y4250D02*
G01X36404Y4181D01*
G01X36404Y4250D02*
G01X36427Y4295D01*
G01X36427Y4295D02*
G01X36450Y4318D01*
G01X36450Y4318D02*
G01X36518Y4340D01*
G01X36518Y4340D02*
G01X36563Y4340D01*
G01X36563Y4340D02*
G01X36631Y4318D01*
G01X36631Y4318D02*
G01X36677Y4272D01*
G01X36677Y4272D02*
G01X36700Y4204D01*
G01X36700Y4136D02*
G01X36700Y4204D01*
G01X36677Y4068D02*
G01X36700Y4136D01*
G01X36654Y4045D02*
G01X36677Y4068D01*
G01X36609Y4022D02*
G01X36654Y4045D01*
G04 Draw part J1*
G04 draw part outline for part J1*
G01X4630Y14455D02*
G01X3370Y14455D01*
G01X3370Y14455D02*
G01X3370Y9545D01*
G01X3370Y9545D02*
G01X4630Y9545D01*
G01X4630Y9545D02*
G01X4630Y14455D01*
G04 draw reference designator for part J1*
G54D12*
G01X5227Y14477D02*
G01X5227Y14113D01*
G01X5227Y14113D02*
G01X5204Y14045D01*
G01X5204Y14045D02*
G01X5181Y14022D01*
G01X5181Y14022D02*
G01X5136Y14000D01*
G01X5090Y14000D02*
G01X5136Y14000D01*
G01X5045Y14022D02*
G01X5090Y14000D01*
G01X5022Y14045D02*
G01X5045Y14022D01*
G01X5000Y14113D02*
G01X5022Y14045D01*
G01X5000Y14159D02*
G01X5000Y14113D01*
G01X5454Y14409D02*
G01X5409Y14386D01*
G01X5522Y14477D02*
G01X5454Y14409D01*
G01X5522Y14477D02*
G01X5522Y14000D01*
G04 Draw part R3*
G04 draw part outline for part R3*
G54D13*
G01X16670Y3200D02*
G01X16670Y4800D01*
G01X16670Y4800D02*
G01X17330Y4800D01*
G01X17330Y4800D02*
G01X17330Y3200D01*
G01X17330Y3200D02*
G01X16670Y3200D01*
G04 draw reference designator for part R3*
G01X17227Y7500D02*
G01X16750Y7500D01*
G01X17227Y7295D02*
G01X17227Y7500D01*
G01X17227Y7295D02*
G01X17204Y7227D01*
G01X17204Y7227D02*
G01X17181Y7204D01*
G01X17181Y7204D02*
G01X17136Y7181D01*
G01X17136Y7181D02*
G01X17090Y7181D01*
G01X17090Y7181D02*
G01X17045Y7204D01*
G01X17045Y7204D02*
G01X17022Y7227D01*
G01X17022Y7227D02*
G01X17000Y7295D01*
G01X17000Y7500D02*
G01X17000Y7295D01*
G01X17000Y7340D02*
G01X16750Y7181D01*
G01X17227Y6704D02*
G01X17227Y6954D01*
G01X17227Y6704D02*
G01X17045Y6840D01*
G01X17045Y6772D02*
G01X17045Y6840D01*
G01X17045Y6772D02*
G01X17022Y6727D01*
G01X17022Y6727D02*
G01X17000Y6704D01*
G01X17000Y6704D02*
G01X16931Y6681D01*
G01X16931Y6681D02*
G01X16886Y6681D01*
G01X16886Y6681D02*
G01X16818Y6704D01*
G01X16818Y6704D02*
G01X16772Y6750D01*
G01X16772Y6750D02*
G01X16750Y6818D01*
G01X16750Y6886D02*
G01X16750Y6818D01*
G01X16772Y6954D02*
G01X16750Y6886D01*
G01X16795Y6977D02*
G01X16772Y6954D01*
G01X16840Y7000D02*
G01X16795Y6977D01*
G04 Draw part R4*
G04 draw part outline for part R4*
G01X11670Y3200D02*
G01X11670Y4800D01*
G01X11670Y4800D02*
G01X12330Y4800D01*
G01X12330Y4800D02*
G01X12330Y3200D01*
G01X12330Y3200D02*
G01X11670Y3200D01*
G04 draw reference designator for part R4*
G01X12227Y7500D02*
G01X11750Y7500D01*
G01X12227Y7295D02*
G01X12227Y7500D01*
G01X12227Y7295D02*
G01X12204Y7227D01*
G01X12204Y7227D02*
G01X12181Y7204D01*
G01X12181Y7204D02*
G01X12136Y7181D01*
G01X12136Y7181D02*
G01X12090Y7181D01*
G01X12090Y7181D02*
G01X12045Y7204D01*
G01X12045Y7204D02*
G01X12022Y7227D01*
G01X12022Y7227D02*
G01X12000Y7295D01*
G01X12000Y7500D02*
G01X12000Y7295D01*
G01X12000Y7340D02*
G01X11750Y7181D01*
G01X12227Y6772D02*
G01X11909Y7000D01*
G01X11909Y6659D02*
G01X11909Y7000D01*
G01X12227Y6772D02*
G01X11750Y6772D01*
G04 Draw part C5*
G04 draw part outline for part C5*
G01X6000Y10620D02*
G01X6000Y13380D01*
G01X6000Y13380D02*
G01X7000Y13380D01*
G01X7000Y13380D02*
G01X7000Y10620D01*
G01X7000Y10620D02*
G01X6000Y10620D01*
G04 draw reference designator for part C5*
G01X5290Y12318D02*
G01X5336Y12340D01*
G01X5245Y12272D02*
G01X5290Y12318D01*
G01X5222Y12227D02*
G01X5245Y12272D01*
G01X5222Y12136D02*
G01X5222Y12227D01*
G01X5222Y12136D02*
G01X5245Y12090D01*
G01X5245Y12090D02*
G01X5290Y12045D01*
G01X5290Y12045D02*
G01X5336Y12022D01*
G01X5336Y12022D02*
G01X5404Y12000D01*
G01X5404Y12000D02*
G01X5518Y12000D01*
G01X5518Y12000D02*
G01X5586Y12022D01*
G01X5586Y12022D02*
G01X5631Y12045D01*
G01X5631Y12045D02*
G01X5677Y12090D01*
G01X5677Y12090D02*
G01X5700Y12136D01*
G01X5700Y12227D02*
G01X5700Y12136D01*
G01X5677Y12272D02*
G01X5700Y12227D01*
G01X5631Y12318D02*
G01X5677Y12272D01*
G01X5586Y12340D02*
G01X5631Y12318D01*
G01X5222Y12568D02*
G01X5222Y12795D01*
G01X5222Y12568D02*
G01X5427Y12545D01*
G01X5404Y12568D02*
G01X5427Y12545D01*
G01X5381Y12636D02*
G01X5404Y12568D01*
G01X5381Y12704D02*
G01X5381Y12636D01*
G01X5381Y12704D02*
G01X5404Y12772D01*
G01X5404Y12772D02*
G01X5450Y12818D01*
G01X5450Y12818D02*
G01X5518Y12840D01*
G01X5518Y12840D02*
G01X5563Y12840D01*
G01X5563Y12840D02*
G01X5631Y12818D01*
G01X5631Y12818D02*
G01X5677Y12772D01*
G01X5677Y12772D02*
G01X5700Y12704D01*
G01X5700Y12636D02*
G01X5700Y12704D01*
G01X5677Y12568D02*
G01X5700Y12636D01*
G01X5654Y12545D02*
G01X5677Y12568D01*
G01X5609Y12522D02*
G01X5654Y12545D01*
G04 Draw part R2*
G04 draw part outline for part R2*
G01X19330Y7300D02*
G01X19330Y5700D01*
G01X19330Y5700D02*
G01X18670Y5700D01*
G01X18670Y5700D02*
G01X18670Y7300D01*
G01X18670Y7300D02*
G01X19330Y7300D01*
G04 draw reference designator for part R2*
G01X20207Y6500D02*
G01X19730Y6500D01*
G01X20207Y6295D02*
G01X20207Y6500D01*
G01X20207Y6295D02*
G01X20184Y6227D01*
G01X20184Y6227D02*
G01X20161Y6204D01*
G01X20161Y6204D02*
G01X20116Y6181D01*
G01X20116Y6181D02*
G01X20070Y6181D01*
G01X20070Y6181D02*
G01X20025Y6204D01*
G01X20025Y6204D02*
G01X20002Y6227D01*
G01X20002Y6227D02*
G01X19980Y6295D01*
G01X19980Y6500D02*
G01X19980Y6295D01*
G01X19980Y6340D02*
G01X19730Y6181D01*
G01X20116Y5977D02*
G01X20093Y5977D01*
G01X20161Y5954D02*
G01X20116Y5977D01*
G01X20184Y5931D02*
G01X20161Y5954D01*
G01X20207Y5886D02*
G01X20184Y5931D01*
G01X20207Y5795D02*
G01X20207Y5886D01*
G01X20207Y5795D02*
G01X20184Y5750D01*
G01X20184Y5750D02*
G01X20161Y5727D01*
G01X20161Y5727D02*
G01X20116Y5704D01*
G01X20116Y5704D02*
G01X20070Y5704D01*
G01X20070Y5704D02*
G01X20025Y5727D01*
G01X20025Y5727D02*
G01X19957Y5772D01*
G01X19957Y5772D02*
G01X19730Y6000D01*
G01X19730Y5681D02*
G01X19730Y6000D01*
G04 Draw part J2*
G04 draw part outline for part J2*
G01X7955Y15545D02*
G01X7955Y18455D01*
G01X7955Y18455D02*
G01X6045Y18455D01*
G01X6045Y18455D02*
G01X6045Y15545D01*
G01X6045Y15545D02*
G01X7955Y15545D01*
G04 draw reference designator for part J2*
G54D12*
G01X6022Y19227D02*
G01X6386Y19227D01*
G01X6386Y19227D02*
G01X6454Y19204D01*
G01X6454Y19204D02*
G01X6477Y19181D01*
G01X6477Y19181D02*
G01X6500Y19136D01*
G01X6500Y19090D02*
G01X6500Y19136D01*
G01X6477Y19045D02*
G01X6500Y19090D01*
G01X6454Y19022D02*
G01X6477Y19045D01*
G01X6386Y19000D02*
G01X6454Y19022D01*
G01X6340Y19000D02*
G01X6386Y19000D01*
G01X6113Y19431D02*
G01X6136Y19431D01*
G01X6068Y19454D02*
G01X6113Y19431D01*
G01X6045Y19477D02*
G01X6068Y19454D01*
G01X6022Y19522D02*
G01X6045Y19477D01*
G01X6022Y19613D02*
G01X6022Y19522D01*
G01X6022Y19613D02*
G01X6045Y19659D01*
G01X6045Y19659D02*
G01X6068Y19681D01*
G01X6068Y19681D02*
G01X6113Y19704D01*
G01X6113Y19704D02*
G01X6159Y19704D01*
G01X6159Y19704D02*
G01X6204Y19681D01*
G01X6204Y19681D02*
G01X6272Y19636D01*
G01X6272Y19636D02*
G01X6500Y19409D01*
G01X6500Y19727D02*
G01X6500Y19409D01*
G04 Draw part R1*
G04 draw part outline for part R1*
G54D13*
G01X20670Y5700D02*
G01X20670Y7300D01*
G01X20670Y7300D02*
G01X21330Y7300D01*
G01X21330Y7300D02*
G01X21330Y5700D01*
G01X21330Y5700D02*
G01X20670Y5700D01*
G04 draw reference designator for part R1*
G01X20772Y3000D02*
G01X21250Y3000D01*
G01X20772Y3204D02*
G01X20772Y3000D01*
G01X20772Y3204D02*
G01X20795Y3272D01*
G01X20795Y3272D02*
G01X20818Y3295D01*
G01X20818Y3295D02*
G01X20863Y3318D01*
G01X20863Y3318D02*
G01X20909Y3318D01*
G01X20909Y3318D02*
G01X20954Y3295D01*
G01X20954Y3295D02*
G01X20977Y3272D01*
G01X20977Y3272D02*
G01X21000Y3204D01*
G01X21000Y3000D02*
G01X21000Y3204D01*
G01X21000Y3159D02*
G01X21250Y3318D01*
G01X20840Y3545D02*
G01X20863Y3500D01*
G01X20772Y3613D02*
G01X20840Y3545D01*
G01X20772Y3613D02*
G01X21250Y3613D01*
G04 Draw part C4*
G04 draw part outline for part C4*
G01X16000Y8380D02*
G01X16000Y5620D01*
G01X16000Y5620D02*
G01X15000Y5620D01*
G01X15000Y5620D02*
G01X15000Y8380D01*
G01X15000Y8380D02*
G01X16000Y8380D01*
G04 draw reference designator for part C4*
G01X15340Y4818D02*
G01X15386Y4840D01*
G01X15295Y4772D02*
G01X15340Y4818D01*
G01X15272Y4727D02*
G01X15295Y4772D01*
G01X15272Y4636D02*
G01X15272Y4727D01*
G01X15272Y4636D02*
G01X15295Y4590D01*
G01X15295Y4590D02*
G01X15340Y4545D01*
G01X15340Y4545D02*
G01X15386Y4522D01*
G01X15386Y4522D02*
G01X15454Y4500D01*
G01X15454Y4500D02*
G01X15568Y4500D01*
G01X15568Y4500D02*
G01X15636Y4522D01*
G01X15636Y4522D02*
G01X15681Y4545D01*
G01X15681Y4545D02*
G01X15727Y4590D01*
G01X15727Y4590D02*
G01X15750Y4636D01*
G01X15750Y4727D02*
G01X15750Y4636D01*
G01X15727Y4772D02*
G01X15750Y4727D01*
G01X15681Y4818D02*
G01X15727Y4772D01*
G01X15636Y4840D02*
G01X15681Y4818D01*
G01X15272Y5250D02*
G01X15590Y5022D01*
G01X15590Y5363D02*
G01X15590Y5022D01*
G01X15272Y5250D02*
G01X15750Y5250D01*
G04 Draw part J5*
G04 draw part outline for part J5*
G01X53045Y14045D02*
G01X54955Y14045D01*
G01X54955Y14045D02*
G01X54955Y15955D01*
G01X54955Y15955D02*
G01X53045Y15955D01*
G01X53045Y15955D02*
G01X53045Y14045D01*
G04 draw reference designator for part J5*
G54D12*
G01X55727Y15977D02*
G01X55727Y15613D01*
G01X55727Y15613D02*
G01X55704Y15545D01*
G01X55704Y15545D02*
G01X55681Y15522D01*
G01X55681Y15522D02*
G01X55636Y15500D01*
G01X55590Y15500D02*
G01X55636Y15500D01*
G01X55545Y15522D02*
G01X55590Y15500D01*
G01X55522Y15545D02*
G01X55545Y15522D01*
G01X55500Y15613D02*
G01X55522Y15545D01*
G01X55500Y15659D02*
G01X55500Y15613D01*
G01X55954Y15977D02*
G01X56181Y15977D01*
G01X55954Y15977D02*
G01X55931Y15772D01*
G01X55954Y15795D02*
G01X55931Y15772D01*
G01X56022Y15818D02*
G01X55954Y15795D01*
G01X56090Y15818D02*
G01X56022Y15818D01*
G01X56090Y15818D02*
G01X56159Y15795D01*
G01X56159Y15795D02*
G01X56204Y15750D01*
G01X56204Y15750D02*
G01X56227Y15681D01*
G01X56227Y15681D02*
G01X56227Y15636D01*
G01X56227Y15636D02*
G01X56204Y15568D01*
G01X56204Y15568D02*
G01X56159Y15522D01*
G01X56159Y15522D02*
G01X56090Y15500D01*
G01X56022Y15500D02*
G01X56090Y15500D01*
G01X55954Y15522D02*
G01X56022Y15500D01*
G01X55931Y15545D02*
G01X55954Y15522D01*
G01X55909Y15590D02*
G01X55931Y15545D01*
G04 Draw part D1*
G04 draw part outline for part D1*
G54D13*
G01X13670Y4200D02*
G01X13670Y5800D01*
G01X13670Y5800D02*
G01X14330Y5800D01*
G01X14330Y5800D02*
G01X14330Y4200D01*
G01X14330Y4200D02*
G01X13670Y4200D01*
G04 draw reference designator for part D1*
G01X12792Y5000D02*
G01X13270Y5000D01*
G01X12792Y5159D02*
G01X12792Y5000D01*
G01X12792Y5159D02*
G01X12815Y5227D01*
G01X12815Y5227D02*
G01X12860Y5272D01*
G01X12860Y5272D02*
G01X12906Y5295D01*
G01X12906Y5295D02*
G01X12974Y5318D01*
G01X12974Y5318D02*
G01X13088Y5318D01*
G01X13088Y5318D02*
G01X13156Y5295D01*
G01X13156Y5295D02*
G01X13201Y5272D01*
G01X13201Y5272D02*
G01X13247Y5227D01*
G01X13247Y5227D02*
G01X13270Y5159D01*
G01X13270Y5000D02*
G01X13270Y5159D01*
G01X12860Y5545D02*
G01X12883Y5500D01*
G01X12792Y5613D02*
G01X12860Y5545D01*
G01X12792Y5613D02*
G01X13270Y5613D01*
G04 Draw part D2*
G04 draw part outline for part D2*
G01X9670Y4200D02*
G01X9670Y5800D01*
G01X9670Y5800D02*
G01X10330Y5800D01*
G01X10330Y5800D02*
G01X10330Y4200D01*
G01X10330Y4200D02*
G01X9670Y4200D01*
G04 draw reference designator for part D2*
G01X8792Y5000D02*
G01X9270Y5000D01*
G01X8792Y5159D02*
G01X8792Y5000D01*
G01X8792Y5159D02*
G01X8815Y5227D01*
G01X8815Y5227D02*
G01X8860Y5272D01*
G01X8860Y5272D02*
G01X8906Y5295D01*
G01X8906Y5295D02*
G01X8974Y5318D01*
G01X8974Y5318D02*
G01X9088Y5318D01*
G01X9088Y5318D02*
G01X9156Y5295D01*
G01X9156Y5295D02*
G01X9201Y5272D01*
G01X9201Y5272D02*
G01X9247Y5227D01*
G01X9247Y5227D02*
G01X9270Y5159D01*
G01X9270Y5000D02*
G01X9270Y5159D01*
G01X8883Y5522D02*
G01X8906Y5522D01*
G01X8838Y5545D02*
G01X8883Y5522D01*
G01X8815Y5568D02*
G01X8838Y5545D01*
G01X8792Y5613D02*
G01X8815Y5568D01*
G01X8792Y5704D02*
G01X8792Y5613D01*
G01X8792Y5704D02*
G01X8815Y5750D01*
G01X8815Y5750D02*
G01X8838Y5772D01*
G01X8838Y5772D02*
G01X8883Y5795D01*
G01X8883Y5795D02*
G01X8929Y5795D01*
G01X8929Y5795D02*
G01X8974Y5772D01*
G01X8974Y5772D02*
G01X9042Y5727D01*
G01X9042Y5727D02*
G01X9270Y5500D01*
G01X9270Y5818D02*
G01X9270Y5500D01*
G04 Draw part H1*
G04 draw part outline for part H1*
G54D11*
G01X1409Y2000D02*
G01X1410Y2040D01*
G01X1414Y2080D01*
G01X1421Y2120D01*
G01X1431Y2159D01*
G01X1443Y2197D01*
G01X1458Y2235D01*
G01X1475Y2271D01*
G01X1495Y2306D01*
G01X1517Y2340D01*
G01X1541Y2372D01*
G01X1568Y2403D01*
G01X1596Y2431D01*
G01X1627Y2458D01*
G01X1659Y2482D01*
G01X1693Y2504D01*
G01X1728Y2524D01*
G01X1764Y2541D01*
G01X1802Y2556D01*
G01X1840Y2568D01*
G01X1879Y2578D01*
G01X1919Y2585D01*
G01X1959Y2589D01*
G01X2000Y2590D01*
G01X2000Y2590D02*
G01X2040Y2589D01*
G01X2080Y2585D01*
G01X2120Y2578D01*
G01X2159Y2568D01*
G01X2197Y2556D01*
G01X2235Y2541D01*
G01X2271Y2524D01*
G01X2306Y2504D01*
G01X2340Y2482D01*
G01X2372Y2458D01*
G01X2403Y2431D01*
G01X2431Y2403D01*
G01X2458Y2372D01*
G01X2482Y2340D01*
G01X2504Y2306D01*
G01X2524Y2271D01*
G01X2541Y2235D01*
G01X2556Y2197D01*
G01X2568Y2159D01*
G01X2578Y2120D01*
G01X2585Y2080D01*
G01X2589Y2040D01*
G01X2590Y2000D01*
G01X2590Y2000D02*
G01X2589Y1959D01*
G01X2585Y1919D01*
G01X2578Y1879D01*
G01X2568Y1840D01*
G01X2556Y1802D01*
G01X2541Y1764D01*
G01X2524Y1728D01*
G01X2504Y1693D01*
G01X2482Y1659D01*
G01X2458Y1627D01*
G01X2431Y1596D01*
G01X2403Y1568D01*
G01X2372Y1541D01*
G01X2340Y1517D01*
G01X2306Y1495D01*
G01X2271Y1475D01*
G01X2235Y1458D01*
G01X2197Y1443D01*
G01X2159Y1431D01*
G01X2120Y1421D01*
G01X2080Y1414D01*
G01X2040Y1410D01*
G01X2000Y1409D01*
G01X2000Y1409D02*
G01X1959Y1410D01*
G01X1919Y1414D01*
G01X1879Y1421D01*
G01X1840Y1431D01*
G01X1802Y1443D01*
G01X1764Y1458D01*
G01X1728Y1475D01*
G01X1693Y1495D01*
G01X1659Y1517D01*
G01X1627Y1541D01*
G01X1596Y1568D01*
G01X1568Y1596D01*
G01X1541Y1627D01*
G01X1517Y1659D01*
G01X1495Y1693D01*
G01X1475Y1728D01*
G01X1458Y1764D01*
G01X1443Y1802D01*
G01X1431Y1840D01*
G01X1421Y1879D01*
G01X1414Y1919D01*
G01X1410Y1959D01*
G01X1409Y2000D01*
G04 Draw part H3*
G04 draw part outline for part H3*
G01X53409Y18000D02*
G01X53410Y18040D01*
G01X53414Y18080D01*
G01X53421Y18120D01*
G01X53431Y18159D01*
G01X53443Y18197D01*
G01X53458Y18235D01*
G01X53475Y18271D01*
G01X53495Y18306D01*
G01X53517Y18340D01*
G01X53541Y18372D01*
G01X53568Y18403D01*
G01X53596Y18431D01*
G01X53627Y18458D01*
G01X53659Y18482D01*
G01X53693Y18504D01*
G01X53728Y18524D01*
G01X53764Y18541D01*
G01X53802Y18556D01*
G01X53840Y18568D01*
G01X53879Y18578D01*
G01X53919Y18585D01*
G01X53959Y18589D01*
G01X54000Y18590D01*
G01X54000Y18590D02*
G01X54040Y18589D01*
G01X54080Y18585D01*
G01X54120Y18578D01*
G01X54159Y18568D01*
G01X54197Y18556D01*
G01X54235Y18541D01*
G01X54271Y18524D01*
G01X54306Y18504D01*
G01X54340Y18482D01*
G01X54372Y18458D01*
G01X54403Y18431D01*
G01X54431Y18403D01*
G01X54458Y18372D01*
G01X54482Y18340D01*
G01X54504Y18306D01*
G01X54524Y18271D01*
G01X54541Y18235D01*
G01X54556Y18197D01*
G01X54568Y18159D01*
G01X54578Y18120D01*
G01X54585Y18080D01*
G01X54589Y18040D01*
G01X54590Y18000D01*
G01X54590Y18000D02*
G01X54589Y17959D01*
G01X54585Y17919D01*
G01X54578Y17879D01*
G01X54568Y17840D01*
G01X54556Y17802D01*
G01X54541Y17764D01*
G01X54524Y17728D01*
G01X54504Y17693D01*
G01X54482Y17659D01*
G01X54458Y17627D01*
G01X54431Y17596D01*
G01X54403Y17568D01*
G01X54372Y17541D01*
G01X54340Y17517D01*
G01X54306Y17495D01*
G01X54271Y17475D01*
G01X54235Y17458D01*
G01X54197Y17443D01*
G01X54159Y17431D01*
G01X54120Y17421D01*
G01X54080Y17414D01*
G01X54040Y17410D01*
G01X54000Y17409D01*
G01X54000Y17409D02*
G01X53959Y17410D01*
G01X53919Y17414D01*
G01X53879Y17421D01*
G01X53840Y17431D01*
G01X53802Y17443D01*
G01X53764Y17458D01*
G01X53728Y17475D01*
G01X53693Y17495D01*
G01X53659Y17517D01*
G01X53627Y17541D01*
G01X53596Y17568D01*
G01X53568Y17596D01*
G01X53541Y17627D01*
G01X53517Y17659D01*
G01X53495Y17693D01*
G01X53475Y17728D01*
G01X53458Y17764D01*
G01X53443Y17802D01*
G01X53431Y17840D01*
G01X53421Y17879D01*
G01X53414Y17919D01*
G01X53410Y17959D01*
G01X53409Y18000D01*
G04 Draw part H4*
G04 draw part outline for part H4*
G01X1409Y18000D02*
G01X1410Y18040D01*
G01X1414Y18080D01*
G01X1421Y18120D01*
G01X1431Y18159D01*
G01X1443Y18197D01*
G01X1458Y18235D01*
G01X1475Y18271D01*
G01X1495Y18306D01*
G01X1517Y18340D01*
G01X1541Y18372D01*
G01X1568Y18403D01*
G01X1596Y18431D01*
G01X1627Y18458D01*
G01X1659Y18482D01*
G01X1693Y18504D01*
G01X1728Y18524D01*
G01X1764Y18541D01*
G01X1802Y18556D01*
G01X1840Y18568D01*
G01X1879Y18578D01*
G01X1919Y18585D01*
G01X1959Y18589D01*
G01X2000Y18590D01*
G01X2000Y18590D02*
G01X2040Y18589D01*
G01X2080Y18585D01*
G01X2120Y18578D01*
G01X2159Y18568D01*
G01X2197Y18556D01*
G01X2235Y18541D01*
G01X2271Y18524D01*
G01X2306Y18504D01*
G01X2340Y18482D01*
G01X2372Y18458D01*
G01X2403Y18431D01*
G01X2431Y18403D01*
G01X2458Y18372D01*
G01X2482Y18340D01*
G01X2504Y18306D01*
G01X2524Y18271D01*
G01X2541Y18235D01*
G01X2556Y18197D01*
G01X2568Y18159D01*
G01X2578Y18120D01*
G01X2585Y18080D01*
G01X2589Y18040D01*
G01X2590Y18000D01*
G01X2590Y18000D02*
G01X2589Y17959D01*
G01X2585Y17919D01*
G01X2578Y17879D01*
G01X2568Y17840D01*
G01X2556Y17802D01*
G01X2541Y17764D01*
G01X2524Y17728D01*
G01X2504Y17693D01*
G01X2482Y17659D01*
G01X2458Y17627D01*
G01X2431Y17596D01*
G01X2403Y17568D01*
G01X2372Y17541D01*
G01X2340Y17517D01*
G01X2306Y17495D01*
G01X2271Y17475D01*
G01X2235Y17458D01*
G01X2197Y17443D01*
G01X2159Y17431D01*
G01X2120Y17421D01*
G01X2080Y17414D01*
G01X2040Y17410D01*
G01X2000Y17409D01*
G01X2000Y17409D02*
G01X1959Y17410D01*
G01X1919Y17414D01*
G01X1879Y17421D01*
G01X1840Y17431D01*
G01X1802Y17443D01*
G01X1764Y17458D01*
G01X1728Y17475D01*
G01X1693Y17495D01*
G01X1659Y17517D01*
G01X1627Y17541D01*
G01X1596Y17568D01*
G01X1568Y17596D01*
G01X1541Y17627D01*
G01X1517Y17659D01*
G01X1495Y17693D01*
G01X1475Y17728D01*
G01X1458Y17764D01*
G01X1443Y17802D01*
G01X1431Y17840D01*
G01X1421Y17879D01*
G01X1414Y17919D01*
G01X1410Y17959D01*
G01X1409Y18000D01*
G04 Draw part H5*
G04 draw part outline for part H5*
G01X46259Y2000D02*
G01X46260Y2040D01*
G01X46264Y2080D01*
G01X46271Y2120D01*
G01X46281Y2159D01*
G01X46293Y2197D01*
G01X46308Y2235D01*
G01X46325Y2271D01*
G01X46345Y2306D01*
G01X46367Y2340D01*
G01X46391Y2372D01*
G01X46418Y2403D01*
G01X46446Y2431D01*
G01X46477Y2458D01*
G01X46509Y2482D01*
G01X46543Y2504D01*
G01X46578Y2524D01*
G01X46614Y2541D01*
G01X46652Y2556D01*
G01X46690Y2568D01*
G01X46729Y2578D01*
G01X46769Y2585D01*
G01X46809Y2589D01*
G01X46850Y2590D01*
G01X46850Y2590D02*
G01X46890Y2589D01*
G01X46930Y2585D01*
G01X46970Y2578D01*
G01X47009Y2568D01*
G01X47047Y2556D01*
G01X47085Y2541D01*
G01X47121Y2524D01*
G01X47156Y2504D01*
G01X47190Y2482D01*
G01X47222Y2458D01*
G01X47253Y2431D01*
G01X47281Y2403D01*
G01X47308Y2372D01*
G01X47332Y2340D01*
G01X47354Y2306D01*
G01X47374Y2271D01*
G01X47391Y2235D01*
G01X47406Y2197D01*
G01X47418Y2159D01*
G01X47428Y2120D01*
G01X47435Y2080D01*
G01X47439Y2040D01*
G01X47440Y2000D01*
G01X47440Y2000D02*
G01X47439Y1959D01*
G01X47435Y1919D01*
G01X47428Y1879D01*
G01X47418Y1840D01*
G01X47406Y1802D01*
G01X47391Y1764D01*
G01X47374Y1728D01*
G01X47354Y1693D01*
G01X47332Y1659D01*
G01X47308Y1627D01*
G01X47281Y1596D01*
G01X47253Y1568D01*
G01X47222Y1541D01*
G01X47190Y1517D01*
G01X47156Y1495D01*
G01X47121Y1475D01*
G01X47085Y1458D01*
G01X47047Y1443D01*
G01X47009Y1431D01*
G01X46970Y1421D01*
G01X46930Y1414D01*
G01X46890Y1410D01*
G01X46850Y1409D01*
G01X46850Y1409D02*
G01X46809Y1410D01*
G01X46769Y1414D01*
G01X46729Y1421D01*
G01X46690Y1431D01*
G01X46652Y1443D01*
G01X46614Y1458D01*
G01X46578Y1475D01*
G01X46543Y1495D01*
G01X46509Y1517D01*
G01X46477Y1541D01*
G01X46446Y1568D01*
G01X46418Y1596D01*
G01X46391Y1627D01*
G01X46367Y1659D01*
G01X46345Y1693D01*
G01X46325Y1728D01*
G01X46308Y1764D01*
G01X46293Y1802D01*
G01X46281Y1840D01*
G01X46271Y1879D01*
G01X46264Y1919D01*
G01X46260Y1959D01*
G01X46259Y2000D01*

G04 Draw traces*

G04 Draw Text*
M00*
M02*
